<?xml version="1.0" encoding="utf-8"?>
<svg xmlns="http://www.w3.org/2000/svg" version="1.0" x="0px" y="0px" viewBox="0.969 1.937 96.771 94.164" enable-background="new 0 0 100 100">
  <g>
    <path d="M42.941,40.317c-6.917,0.038-12.416-5.283-12.571-12.165c-0.157-6.933,5.661-12.766,12.643-12.676   c6.866,0.089,12.243,5.587,12.223,12.496C55.215,34.944,49.9,40.28,42.941,40.317z" style="fill: rgb(255, 255, 255);"/>
    <path d="M27.288,40.69c0.053,4.622-3.419,8.304-7.999,8.483c-4.789,0.188-8.662-3.5-8.704-8.288   c-0.042-4.758,3.83-8.656,8.507-8.564C23.583,32.409,27.236,36.139,27.288,40.69z" style="fill: rgb(255, 255, 255);"/>
    <path d="M21.889,53.299c-0.797,5.053-1.534,9.733-2.318,14.711c-4.415,0-8.967,0-13.48,0C3.265,60.067,13.509,49.65,21.889,53.299z   " style="fill: rgb(255, 255, 255);"/>
    <g>
      <path d="M48.389,62.25c0-5.672,2.021-10.881,5.379-14.945c-0.631-0.419-1.285-0.825-1.994-1.201    c-7.308-3.879-14.507-3.006-21.04,2.023c-6.051,4.658-8.755,12.972-6.722,19.929c8.317,0,16.652,0,25.104,0    C48.643,66.198,48.389,64.253,48.389,62.25z" style="fill: rgb(255, 255, 255);"/>
    </g>
    <path d="M71.889,38.75c1.024,0,2.03,0.073,3.021,0.2c-0.837-3.742-4.087-6.579-8.023-6.629c-4.627-0.06-8.636,3.973-8.558,8.609   c0.012,0.67,0.114,1.32,0.281,1.946C62.391,40.276,66.964,38.75,71.889,38.75z" style="fill: rgb(255, 255, 255);"/>
    <path d="M72.89,41.525c-11.874,0-21.5,9.626-21.5,21.5s9.626,21.5,21.5,21.5s21.5-9.626,21.5-21.5S84.764,41.525,72.89,41.525z    M87.23,66.26H76.053V77.38h-6.326V66.26H58.549v-6.326h11.178V48.669h6.326v11.265H87.23V66.26z" style="fill: rgb(255, 255, 255);"/>
  </g>
</svg>